HIERARCHY
ROOT root
{
	OFFSET	0	13.1	24.9
	CHANNELS 6  Xposition Yposition Zposition Xrotation Yrotation Zrotation
	JOINT spine_1
	{
		OFFSET	0	9.99999	0
		CHANNELS 3  Xrotation Yrotation Zrotation
		JOINT spine_2
		{
			OFFSET	0	112	-10
			CHANNELS 3  Xrotation Yrotation Zrotation
			JOINT spine_3
			{
				OFFSET	0	206.5	19.3
				CHANNELS 3  Xrotation Yrotation Zrotation
				JOINT spine_4
				{
					OFFSET	0	110.4	14.6
					CHANNELS 3  Xrotation Yrotation Zrotation
					JOINT neck_1
					{
						OFFSET	0	71.8	-50.3
						CHANNELS 3  Xrotation Yrotation Zrotation
						JOINT neck_2
						{
							OFFSET	0	86.2	-25.8
							CHANNELS 3  Xrotation Yrotation Zrotation
							JOINT head_ee
							{
								OFFSET	0	179.8	-8.7
								CHANNELS 3  Xrotation Yrotation Zrotation
								End Site
								{
									OFFSET	1	0	0
								}
							}
						}
					}
					JOINT left_clavicle
					{
						OFFSET	-43.2	22.4	-70.8
						CHANNELS 3  Xrotation Yrotation Zrotation
						JOINT left_shoulder
						{
							OFFSET	-93.9	-5.79999	48.7
							CHANNELS 3  Xrotation Yrotation Zrotation
							JOINT left_elbow
							{
								OFFSET	-291.4	-30.8	15.2
								CHANNELS 3  Xrotation Yrotation Zrotation
								JOINT left_lowarm_twist
								{
									OFFSET	-110.7	-3.89999	13.6
									CHANNELS 3  Xrotation Yrotation Zrotation
									JOINT left_hand
									{
										OFFSET	-110.7	-3.89999	13.6
										CHANNELS 3  Xrotation Yrotation Zrotation
										JOINT left_ee
										{
											OFFSET	-80.8	-5.10001	12.1
											CHANNELS 3  Xrotation Yrotation Zrotation
											End Site
											{
												OFFSET	1	0	0
											}
										}
									}
								}
							}
						}
					}
					JOINT right_clavicle
					{
						OFFSET	43.2	22.4	-70.8
						CHANNELS 3  Xrotation Yrotation Zrotation
						JOINT right_shoulder
						{
							OFFSET	93.9	-5.79999	48.7
							CHANNELS 3  Xrotation Yrotation Zrotation
							JOINT right_elbow
							{
								OFFSET	291.4	-30.8	15.2
								CHANNELS 3  Xrotation Yrotation Zrotation
								JOINT right_lowarm_twist
								{
									OFFSET	110.7	-3.89999	13.6
									CHANNELS 3  Xrotation Yrotation Zrotation
									JOINT right_hand
									{
										OFFSET	110.7	-3.89999	13.6
										CHANNELS 3  Xrotation Yrotation Zrotation
										JOINT right_ee
										{
											OFFSET	80.8	-5.10001	12.1
											CHANNELS 3  Xrotation Yrotation Zrotation
											End Site
											{
												OFFSET	1	0	0
											}
										}
									}
								}
							}
						}
					}
				}
			}
		}
	}
	JOINT left_hip
	{
		OFFSET	-82.8	-127.5	0.300001
		CHANNELS 3  Xrotation Yrotation Zrotation
		JOINT left_knee
		{
			OFFSET	-28.2	-396.7	2.2
			CHANNELS 3  Xrotation Yrotation Zrotation
			JOINT left_ankle
			{
				OFFSET	-11.7	-411.3	35.4
				CHANNELS 3  Xrotation Yrotation Zrotation
				JOINT left_toes
				{
					OFFSET	0	-60	-88.6
					CHANNELS 3  Xrotation Yrotation Zrotation
					JOINT left_foot_ee
					{
						OFFSET	-22.5	-16.5	-42.2
						CHANNELS 3  Xrotation Yrotation Zrotation
						End Site
						{
							OFFSET	1	0	0
						}
					}
				}
			}
		}
	}
	JOINT right_hip
	{
		OFFSET	82.8	-127.5	0.300001
		CHANNELS 3  Xrotation Yrotation Zrotation
		JOINT right_knee
		{
			OFFSET	28.2	-396.7	2.2
			CHANNELS 3  Xrotation Yrotation Zrotation
			JOINT right_ankle
			{
				OFFSET	11.7	-411.3	35.4
				CHANNELS 3  Xrotation Yrotation Zrotation
				JOINT right_toes
				{
					OFFSET	0	-60	-88.6
					CHANNELS 3  Xrotation Yrotation Zrotation
					JOINT right_foot_ee
					{
						OFFSET	22.5	-16.5	-42.2
						CHANNELS 3  Xrotation Yrotation Zrotation
						End Site
						{
							OFFSET	1	0	0
						}
					}
				}
			}
		}
	}
}
MOTION
Frames: 14
Frame Time: 0.02
2833.74310221 708.614 -1632.41529402 -6.03865101425 70.8680821234 5.43624015791 2.84709 0.032336 2.19298 2.84976 -0.10724 2.1906 2.84487 -0.459623 2.14454 2.83847 -0.11525 2.19019 -22.6996 2.91559 -3.79944 -22.7572 7.37778 -2.16643 -0.0 0.0 -0.0 -1.40082 16.4942 -0.254091 17.764 -10.5531 69.2585 0.850105 -22.8366 0.171697 -36.5128 -2.58817 3.79913 2.29198 1.3873 16.0525 -0.0 0.0 -0.0 9.39936 2.92588 -18.5107 -24.1269 7.01996 -64.4798 0.669405 18.3458 -0.108096 46.8539 0.752898 5.77338 -0.553378 -25.4425 -6.94394 0.0 0.0 0.0 4.14625 4.35057 -1.07543 -4.57126 0.161036 0.682884 33.9128 -6.97551 -4.39809 -12.5684 0.0 0.0 -0.0 0.0 -0.0 15.83 19.0469 2.83943 -61.6433 2.38002 -8.70395 11.5887 1.34889 1.65895 4.46711 -0.0 -0.0 0.0 0.0 0.0 
2823.55807407 712.736 -1621.46025073 -6.05359068438 71.382993732 5.6580823125 2.83073 0.00442289 2.07128 2.83311 -0.127358 2.06737 2.82781 -0.460168 2.01954 2.82215 -0.135515 2.06685 -23.1649 2.63142 -4.01146 -23.2082 6.89441 -2.47522 -0.0 0.0 -0.0 -1.09117 14.9423 0.00858863 19.3576 -11.0842 69.1063 0.897996 -23.9811 0.190724 -35.3662 -2.47238 3.70839 2.2907 -0.456923 15.3129 -0.0 0.0 -0.0 9.2025 2.63491 -18.0941 -24.852 6.78557 -63.8707 0.611179 16.8443 -0.0904935 46.418 0.724471 5.72537 -0.832661 -27.4677 -6.1949 0.0 0.0 0.0 2.25332 4.42735 -0.465502 -3.68237 0.134003 0.549145 35.2032 -6.86192 -4.52304 -12.6032 0.0 0.0 -0.0 0.0 -0.0 18.9272 19.9315 2.3269 -62.5053 2.4765 -8.79553 8.7624 0.675198 1.26507 4.44247 -0.0 -0.0 0.0 0.0 0.0 
2813.68483579 710.629 -1606.70825784 -9.30372293239 72.117573336 9.76522165174 2.90992 0.121098 1.94496 2.91203 -0.00288617 1.94872 2.9113 -0.315249 1.92306 2.90614 -0.00764109 1.9487 -20.2956 2.5714 -3.80244 -20.3266 6.87078 -2.44551 -0.0 0.0 -0.0 -0.815042 13.4667 0.250997 20.5899 -11.2867 68.9286 0.996537 -26.273 0.232576 -34.5814 -2.39419 3.64496 1.84009 -2.09586 11.5421 -0.0 0.0 -0.0 8.89848 2.2638 -17.4567 -25.3416 6.06273 -63.0306 0.54455 15.0966 -0.0721591 46.9437 0.758803 5.78325 -1.35294 -28.7545 -3.90479 0.0 0.0 0.0 0.806073 5.68546 -0.217865 1.77358 -0.0770874 -0.261227 27.8584 -4.06701 -3.71594 -13.0006 0.0 0.0 -0.0 0.0 -0.0 23.5416 14.4359 2.63824 -58.7306 2.06449 -8.38411 7.62903 1.71137 1.10897 -1.30158 0.0 0.0 0.0 0.0 0.0 
2803.18992972 710.938 -1590.78124153 -12.9550665844 73.1924316336 13.6311295412 2.96963 0.174044 1.76577 2.97136 0.0613486 1.77327 2.97273 -0.221782 1.76041 2.96841 0.0589808 1.77335 -19.5653 2.26676 -4.64663 -19.5704 6.7648 -3.39491 -0.0 0.0 -0.0 -0.683986 13.1596 0.425324 21.3286 -11.7675 68.4711 1.15406 -29.755 0.306595 -33.9823 -2.33509 3.59583 1.4475 -5.12065 7.60924 -0.0 0.0 -0.0 8.66449 1.82388 -16.9669 -27.0671 5.17333 -62.6469 0.515622 14.3286 -0.0648122 48.1394 0.838854 5.9137 -1.68867 -29.2313 -2.31799 0.0 0.0 0.0 -0.0920246 6.31688 0.351336 3.30556 -0.150169 -0.4849 25.9001 -2.19919 -3.4747 -12.6522 0.0 0.0 -0.0 0.0 -0.0 26.1961 11.1867 1.19129 -47.6839 1.02649 -7.0384 8.50766 2.16089 1.23466 -7.26155 0.0 0.0 0.0 0.0 0.0 
2783.92111471 707.873 -1571.45431741 -15.9799185631 73.2440642192 17.0731965582 3.22239 0.0600666 1.54213 3.22371 -0.0381728 1.54283 3.22218 -0.276752 1.51829 3.21896 -0.0335237 1.54293 -19.6044 3.44983 -5.59661 -19.6469 9.53011 -3.7888 -0.0 0.0 -0.0 -0.519886 12.4214 0.600783 21.3271 -13.9411 67.1749 1.44183 -35.5338 0.462024 -34.8107 -2.41695 3.6636 0.668318 -8.39325 0.948947 -0.0 0.0 -0.0 8.38509 2.02632 -16.3972 -28.5568 4.98692 -61.8412 0.431208 12.0578 -0.0455419 48.1284 0.838104 5.9125 -2.13905 -29.0039 0.197272 0.0 0.0 0.0 -2.68427 8.12454 0.418459 5.81289 -0.282633 -0.846609 25.4961 -1.06246 -3.41842 -11.7129 0.0 0.0 -0.0 0.0 -0.0 29.8203 5.99608 -0.605229 -29.4316 -0.0654188 -4.46682 13.4613 -1.40049 1.90064 -18.1111 0.0 0.0 0.0 0.0 0.0 
2783.67758868 707.873 -1572.43804156 -15.8499394738 73.1062208949 16.9374048708 3.22239 0.0600666 1.54213 3.22371 -0.0381728 1.54283 3.22218 -0.276752 1.51829 3.21896 -0.0335237 1.54293 -19.6044 3.44983 -5.59661 -19.6469 9.53011 -3.7888 -0.0 0.0 -0.0 -0.519886 12.4214 0.600783 21.3271 -13.9411 67.1749 1.44183 -35.5338 0.462024 -34.8107 -2.41695 3.6636 0.668318 -8.39325 0.948947 -0.0 0.0 -0.0 8.38509 2.02632 -16.3972 -28.5568 4.98692 -61.8412 0.431208 12.0578 -0.0455419 48.1284 0.838104 5.9125 -2.13905 -29.0039 0.197272 0.0 0.0 0.0 -2.68427 8.12454 0.418459 5.81289 -0.282633 -0.846609 25.4961 -1.06246 -3.41842 -11.7129 0.0 0.0 -0.0 0.0 -0.0 29.8203 5.99608 -0.605229 -29.4316 -0.0654188 -4.46682 13.4613 -1.40049 1.90064 -18.1111 0.0 0.0 0.0 0.0 0.0 
2775.89093104 706.454 -1568.20105632 -15.3591201474 72.7490078079 16.4555308371 3.2779 0.0671767 1.37332 3.27895 -0.0203387 1.37481 3.27804 -0.231763 1.35529 3.27548 -0.014833 1.37488 -19.3462 3.78399 -4.72599 -19.4164 9.74437 -2.85752 -0.0 0.0 -0.0 -0.823917 12.4897 0.103232 21.8426 -13.7845 67.6285 1.61009 -38.5726 0.563446 -32.7633 -2.21646 3.49398 0.552797 -11.2037 -1.03248 -0.0 0.0 -0.0 8.23288 1.92685 -16.0848 -29.161 5.21144 -61.3139 0.465111 12.9749 -0.0528896 48.6627 0.874748 5.97027 -2.22521 -27.477 1.41956 0.0 0.0 0.0 -3.83359 9.18284 0.791528 6.27936 -0.309022 -0.91326 26.3778 -0.708831 -3.51653 -14.0995 0.0 0.0 -0.0 0.0 -0.0 28.4305 4.54725 -0.104293 -22.7041 -0.253729 -3.45214 13.7567 0.94123 1.95035 -19.2498 0.0 0.0 0.0 0.0 0.0 
2761.23959784 703.895 -1570.42366408 -13.9051996885 72.2469270591 14.890270792 3.14971 -0.0202598 1.39215 3.15078 -0.108796 1.38805 3.14774 -0.32431 1.35401 3.1452 -0.106421 1.38823 -20.5294 4.81828 -2.46494 -20.6815 10.52 -0.218057 -0.0 0.0 -0.0 -1.0222 12.4871 -0.227559 22.0979 -14.685 67.0001 1.71611 -40.3647 0.630844 -37.1184 -2.65005 3.84611 0.312674 -10.7661 -2.46568 -0.0 0.0 -0.0 7.86645 1.67357 -15.3366 -29.7748 5.2518 -61.2464 0.487533 13.5777 -0.0580388 49.5581 0.937357 6.0663 -2.01266 -29.1083 -0.52944 0.0 0.0 0.0 -5.61567 9.99329 1.37802 6.88008 -0.343806 -0.998777 30.4337 0.294293 -3.95435 -16.349 0.0 0.0 -0.0 0.0 -0.0 28.5439 4.70093 -1.37871 -12.5276 -0.309824 -1.89376 17.4624 2.31836 2.44587 -22.0762 0.0 0.0 0.0 0.0 0.0 
2739.60187151 700.402 -1575.40773239 -10.8593394191 71.1341477635 11.7827164574 3.08585 -0.0808851 1.35652 3.08685 -0.167032 1.34863 3.08255 -0.37717 1.30555 3.08021 -0.166269 1.34872 -21.4782 5.41592 -2.38294 -21.6833 11.5962 0.213866 -0.0 0.0 -0.0 -1.25674 12.2762 -0.649636 21.921 -14.9805 66.4631 1.80097 -41.7338 0.686579 -34.4409 -2.38028 3.63349 0.292181 -12.9102 -3.52182 -0.0 0.0 -0.0 7.57232 1.32858 -14.7397 -30.9898 5.07344 -61.3863 0.496131 13.808 -0.060074 49.568 0.938059 6.06736 -2.39312 -28.9823 1.56829 0.0 0.0 0.0 -7.94086 10.4588 1.87608 6.28621 -0.309414 -0.914236 32.0473 0.887064 -4.11868 -16.5452 0.0 0.0 -0.0 0.0 -0.0 28.4746 5.0909 -2.16503 -5.70965 -0.192619 -0.854732 16.4545 0.932122 2.30628 -23.3104 0.0 0.0 0.0 0.0 0.0 
2723.36499208 695.82 -1581.3198426 -10.4055391235 69.5988265977 11.0021397792 3.04786 -0.0574165 1.32379 3.04882 -0.141529 1.31745 3.04522 -0.347903 1.27855 3.04297 -0.141632 1.31744 -22.2603 6.01614 -1.98491 -22.5225 12.5363 0.942677 -0.0 0.0 -0.0 -1.17265 12.4246 -0.487459 22.6662 -15.4367 65.7682 1.88017 -42.9609 0.739935 -36.0586 -2.54208 3.76345 0.186825 -10.463 -3.18629 -0.0 0.0 -0.0 7.26602 0.996356 -14.123 -31.6967 4.91841 -61.3054 0.481778 13.4233 -0.0566954 50.1953 0.982829 6.13404 -2.51739 -28.7446 2.35756 0.0 0.0 0.0 -9.23648 10.5788 2.33589 6.2844 -0.30931 -0.913978 35.0746 -0.827523 -4.43301 -16.743 0.0 0.0 -0.0 0.0 -0.0 28.2636 5.29759 -2.62403 -0.229825 -0.00939531 -0.0340175 15.6055 1.18486 2.19682 -25.0562 0.0 0.0 0.0 0.0 0.0 
2709.50253122 695.476 -1585.60859953 -9.04416260623 69.4881527209 9.53743303359 2.94563 -0.0424852 1.30463 2.94657 -0.125409 1.29929 2.94341 -0.331355 1.26257 2.94121 -0.127814 1.29905 -19.7956 6.37919 -2.08977 -20.0417 13.361 0.732267 -0.0 0.0 -0.0 -0.82416 12.5302 0.10834 22.1599 -16.0394 65.6015 2.03386 -45.2092 0.84688 -40.115 -2.9634 4.0689 0.0641663 -9.6374 -3.66296 -0.0 0.0 -0.0 7.21009 0.873778 -14.0109 -31.9739 4.98632 -61.7738 0.457696 12.7749 -0.0512374 51.6169 1.08698 6.28335 -2.65208 -28.8767 3.01212 0.0 0.0 0.0 -10.5459 10.7541 3.04433 6.15979 -0.302206 -0.896195 34.7714 -0.037575 -4.39729 -17.5186 0.0 0.0 -0.0 0.0 -0.0 28.1057 5.59459 -3.10349 7.05871 0.354323 1.02414 6.41633 2.2221 0.93792 -26.1955 0.0 0.0 0.0 0.0 0.0 
2697.73174276 690.866 -1592.82110323 -7.78126693282 69.2572429452 7.98711381078 2.75651 -0.0342004 1.3043 2.75745 -0.11712 1.29949 2.75452 -0.327369 1.26302 2.75232 -0.123807 1.29887 -21.2974 6.84188 -1.87807 -21.6118 14.1068 1.31661 -0.0 0.0 -0.0 -0.0640955 12.3913 1.35664 21.0726 -17.601 62.9927 2.20687 -47.5436 0.972146 -41.9039 -3.15589 4.19402 -0.116048 -6.93834 -3.72943 -0.0 0.0 -0.0 7.04519 0.0400745 -13.6818 -32.2076 5.04432 -62.1587 0.515472 14.3246 -0.0647749 52.7424 1.17206 6.39972 -2.8725 -28.8112 4.23296 0.0 0.0 0.0 -12.1744 10.8028 3.04459 6.96439 -0.34876 -1.01075 36.4712 0.187909 -4.55774 -18.713 0.0 0.0 -0.0 0.0 -0.0 29.9782 5.52191 -3.44083 8.96307 0.471348 1.29245 2.94054 8.1069 0.445223 -28.0717 0.0 0.0 0.0 0.0 0.0 
2683.19527627 689.808 -1598.16351592 -8.33061896652 69.242902333 8.14308735008 2.60327 0.0323951 1.32255 2.60425 -0.0518203 1.32193 2.60282 -0.270017 1.2951 2.60049 -0.0621094 1.32149 -20.5167 7.10546 -2.0761 -20.839 14.7336 1.15419 -0.0 0.0 -0.0 -0.574569 12.4783 0.517055 20.9771 -18.3855 64.2472 2.35629 -49.4053 1.08402 -44.8005 -3.47555 4.38372 0.125018 -5.08927 -1.31386 -0.0 0.0 -0.0 7.13748 0.709982 -13.8657 -32.311 5.16009 -62.6615 0.451066 12.5958 -0.0497815 55.7259 1.40853 6.69996 -2.9625 -29.0272 4.59844 0.0 0.0 0.0 -12.9932 10.6976 3.05534 6.64299 -0.32997 -0.965068 37.926 -1.08212 -4.70189 -19.4189 0.0 0.0 -0.0 0.0 -0.0 30.6525 6.2258 -3.5694 9.51214 0.506746 1.36908 1.8825 10.3402 0.289443 -28.6342 0.0 0.0 0.0 0.0 0.0 
2631.00808391 673.677 -1607.35330985 -9.62735650299 70.2964363857 8.08215759726 2.32116 0.0802716 1.19175 2.32195 0.00428058 1.19444 2.32193 -0.199335 1.1777 2.31999 -0.0108522 1.1944 -20.4954 7.99044 0.0174653 -20.8577 15.3976 3.48306 -0.0 0.0 -0.0 0.842896 13.4733 2.9709 16.1431 -21.0425 60.6471 2.53999 -51.5153 1.22572 -52.3429 -4.34876 4.79979 0.341429 -0.0241866 2.27057 -0.0 0.0 -0.0 6.9729 1.06307 -13.5358 -31.3064 6.66364 -65.4706 0.454276 12.6825 -0.0504839 58.8615 1.67362 7.00192 -3.35984 -29.027 6.73915 0.0 0.0 0.0 -15.8881 10.7776 4.16517 4.98316 -0.237042 -0.727544 39.8896 -1.43751 -4.87853 -19.2319 0.0 0.0 -0.0 0.0 -0.0 34.928 6.80497 -3.35844 3.52783 0.16127 0.517191 -7.43172 16.7575 -1.22197 -29.3475 0.0 0.0 0.0 0.0 0.0 
